<svg width="16" height="21" viewBox="0 0 16 21" fill="none" xmlns="http://www.w3.org/2000/svg">
<path d="M8 4.63634C7.2808 4.63634 6.57774 4.84961 5.97974 5.24918C5.38175 5.64875 4.91567 6.21667 4.64044 6.88113C4.36521 7.54559 4.2932 8.27674 4.43351 8.98212C4.57382 9.68751 4.92015 10.3354 5.4287 10.844C5.93726 11.3526 6.5852 11.6989 7.29058 11.8392C7.99597 11.9795 8.72712 11.9075 9.39158 11.6323C10.056 11.357 10.624 10.891 11.0235 10.293C11.4231 9.69496 11.6364 8.99191 11.6364 8.2727C11.6364 7.30828 11.2532 6.38336 10.5713 5.70141C9.88935 5.01946 8.96442 4.63634 8 4.63634ZM8 10.4545C7.56848 10.4545 7.14665 10.3266 6.78785 10.0868C6.42905 9.84708 6.1494 9.50633 5.98426 9.10765C5.81913 8.70897 5.77592 8.27028 5.86011 7.84705C5.94429 7.42382 6.15209 7.03506 6.45722 6.72993C6.76235 6.42479 7.15112 6.217 7.57435 6.13281C7.99758 6.04862 8.43627 6.09183 8.83495 6.25697C9.23362 6.4221 9.57438 6.70175 9.81412 7.06055C10.0539 7.41935 10.1818 7.84118 10.1818 8.2727C10.1818 8.85136 9.95195 9.40631 9.54278 9.81548C9.13361 10.2247 8.57865 10.4545 8 10.4545ZM8 0.272705C5.87901 0.275111 3.84557 1.11874 2.3458 2.61851C0.846033 4.11828 0.00240612 6.15171 0 8.2727C0 11.1272 1.31909 14.1527 3.81818 17.0227C4.94111 18.3196 6.20496 19.4874 7.58636 20.5045C7.70865 20.5902 7.85433 20.6361 8.00364 20.6361C8.15294 20.6361 8.29863 20.5902 8.42091 20.5045C9.79977 19.487 11.0612 18.3192 12.1818 17.0227C14.6773 14.1527 16 11.1272 16 8.2727C15.9976 6.15171 15.154 4.11828 13.6542 2.61851C12.1544 1.11874 10.121 0.275111 8 0.272705ZM8 19C6.49727 17.8182 1.45455 13.4773 1.45455 8.2727C1.45455 6.53674 2.14415 4.87188 3.37166 3.64437C4.59918 2.41686 6.26404 1.72725 8 1.72725C9.73596 1.72725 11.4008 2.41686 12.6283 3.64437C13.8558 4.87188 14.5455 6.53674 14.5455 8.2727C14.5455 13.4754 9.50273 17.8182 8 19Z" fill="black"/>
</svg>
