<svg width="16" height="19" viewBox="0 0 16 19" fill="none" xmlns="http://www.w3.org/2000/svg">
<path d="M13.5273 13.2364L8.48455 9.45455L13.5273 5.67273C13.6176 5.60498 13.6909 5.51714 13.7414 5.41615C13.7919 5.31517 13.8182 5.20381 13.8182 5.09091C13.8182 4.978 13.7919 4.86665 13.7414 4.76566C13.6909 4.66468 13.6176 4.57683 13.5273 4.50909L7.70909 0.145455C7.60104 0.064417 7.47256 0.0150685 7.33804 0.00293903C7.20352 -0.0091904 7.06829 0.0163784 6.94748 0.0767805C6.82668 0.137183 6.72508 0.230032 6.65407 0.344923C6.58307 0.459815 6.54545 0.59221 6.54545 0.727273V8L1.89091 4.50909C1.7366 4.39336 1.54264 4.34367 1.35169 4.37095C1.16075 4.39822 0.988459 4.50024 0.872728 4.65455C0.756997 4.80885 0.707305 5.00281 0.734583 5.19376C0.761861 5.38471 0.863875 5.557 1.01818 5.67273L6.06091 9.45455L1.01818 13.2364C0.941777 13.2937 0.877406 13.3655 0.828746 13.4476C0.780086 13.5298 0.748089 13.6208 0.734583 13.7153C0.707305 13.9063 0.756997 14.1002 0.872728 14.2545C0.988459 14.4089 1.16075 14.5109 1.35169 14.5381C1.54264 14.5654 1.7366 14.5157 1.89091 14.4L6.54545 10.9091V18.1818C6.54545 18.3169 6.58307 18.4493 6.65407 18.5642C6.72508 18.6791 6.82668 18.7719 6.94748 18.8323C7.06829 18.8927 7.20352 18.9183 7.33804 18.9062C7.47256 18.894 7.60104 18.8447 7.70909 18.7636L13.5273 14.4C13.6176 14.3323 13.6909 14.2444 13.7414 14.1434C13.7919 14.0424 13.8182 13.9311 13.8182 13.8182C13.8182 13.7053 13.7919 13.5939 13.7414 13.4929C13.6909 13.3919 13.6176 13.3041 13.5273 13.2364ZM8 2.18182L11.8791 5.09091L8 8V2.18182ZM8 16.7273V10.9091L11.8791 13.8182L8 16.7273ZM1.09091 10.5455C0.875148 10.5455 0.664232 10.4815 0.484833 10.3616C0.305434 10.2417 0.165609 10.0714 0.083041 9.87202C0.000472676 9.67268 -0.021131 9.45333 0.020962 9.24172C0.063055 9.0301 0.166954 8.83572 0.31952 8.68316C0.472087 8.53059 0.666468 8.42669 0.878084 8.3846C1.0897 8.3425 1.30904 8.36411 1.50838 8.44668C1.70772 8.52924 1.8781 8.66907 1.99797 8.84847C2.11784 9.02787 2.18182 9.23878 2.18182 9.45455C2.18182 9.74387 2.06688 10.0213 1.8623 10.2259C1.65771 10.4305 1.38024 10.5455 1.09091 10.5455ZM15.2727 9.45455C15.2727 9.67031 15.2087 9.88122 15.0889 10.0606C14.969 10.24 14.7986 10.3798 14.5993 10.4624C14.4 10.545 14.1806 10.5666 13.969 10.5245C13.7574 10.4824 13.563 10.3785 13.4104 10.2259C13.2579 10.0734 13.154 9.87899 13.1119 9.66737C13.0698 9.45575 13.0914 9.23641 13.1739 9.03707C13.2565 8.83773 13.3963 8.66736 13.5757 8.54749C13.7551 8.42762 13.9661 8.36364 14.1818 8.36364C14.4711 8.36364 14.7486 8.47857 14.9532 8.68316C15.1578 8.88774 15.2727 9.16522 15.2727 9.45455Z" fill="black"/>
</svg>
