<svg width="16" height="21" viewBox="0 0 16 21" fill="none" xmlns="http://www.w3.org/2000/svg">
<path d="M12.1818 4.15909C11.0589 2.86221 9.79504 1.69441 8.41364 0.677268C8.29135 0.591606 8.14567 0.545654 7.99636 0.545654C7.84706 0.545654 7.70138 0.591606 7.57909 0.677268C6.20023 1.69483 4.93884 2.86262 3.81818 4.15909C1.31909 7.02909 0 10.0545 0 12.9091C0 15.0308 0.842855 17.0657 2.34315 18.5659C3.84344 20.0662 5.87827 20.9091 8 20.9091C10.1217 20.9091 12.1566 20.0662 13.6569 18.5659C15.1571 17.0657 16 15.0308 16 12.9091C16 10.0545 14.6809 7.02909 12.1818 4.15909ZM8 19.4545C6.26463 19.4526 4.60088 18.7624 3.37379 17.5353C2.1467 16.3082 1.45647 14.6445 1.45455 12.9091C1.45455 7.70636 6.49727 3.36363 8 2.18181C9.50273 3.36363 14.5455 7.70454 14.5455 12.9091C14.5435 14.6445 13.8533 16.3082 12.6262 17.5353C11.3991 18.7624 9.73537 19.4526 8 19.4545ZM13.0809 13.7582C12.8923 14.8115 12.3855 15.7818 11.6288 16.5385C10.872 17.2951 9.90159 17.8016 8.84818 17.99C8.80819 17.9964 8.76777 17.9997 8.72727 18C8.54484 17.9999 8.36909 17.9313 8.23488 17.8078C8.10067 17.6842 8.01779 17.5147 8.00269 17.3329C7.98758 17.1511 8.04136 16.9703 8.15334 16.8263C8.26533 16.6823 8.42735 16.5856 8.60727 16.5555C10.1136 16.3018 11.3918 15.0236 11.6473 13.5145C11.6796 13.3243 11.7861 13.1547 11.9435 13.043C12.1009 12.9314 12.2961 12.8868 12.4864 12.9191C12.6766 12.9514 12.8462 13.0579 12.9579 13.2153C13.0695 13.3727 13.1132 13.5679 13.0809 13.7582Z" fill="black"/>
</svg>
